<?xml version="1.0" encoding="utf-8"?>
<!-- Generator: Adobe Illustrator 21.0.0, SVG Export Plug-In . SVG Version: 6.00 Build 0)  -->
<svg version="1.1" id="Layer_1" xmlns="http://www.w3.org/2000/svg" xmlns:xlink="http://www.w3.org/1999/xlink" x="0px" y="0px"
	 viewBox="0 0 42 43" style="enable-background:new 0 0 42 43;" xml:space="preserve">
<style type="text/css">
	.st0{fill:#023753;}
	.st1{fill:#F48A31;}
</style>
<g id="Page-1">
	<g id="close">
		<path id="Fill-1" class="st0" d="M1.4,36.6H23v2c0,1.1-0.9,2-2,2H3.4c-1.1,0-2-0.9-2-2V36.6z M0,38.6C0,40.5,1.5,42,3.4,42H21
			c1.9,0,3.4-1.5,3.4-3.4v-3.4H0V38.6z"/>
		<path id="Fill-3" class="st0" d="M3.4,1.4H21c1.1,0,2,0.9,2,2v0.7H1.4V3.4C1.4,2.3,2.3,1.4,3.4,1.4z M1.4,5.4h23v-2
			C24.4,1.5,22.9,0,21,0H3.4C1.5,0,0,1.5,0,3.4v30.5h1.4V5.4z"/>
		<polygon id="Fill-5" class="st1" points="8.8,39.3 15.6,39.3 15.6,37.9 8.8,37.9 		"/>
		<path id="Fill-6" class="st1" d="M28.5,6.8c-5,0-9.6,2.7-11.9,7.1l1.2,0.6c2.1-4,6.2-6.4,10.7-6.4c6.7,0,12.2,5.5,12.2,12.2
			s-5.5,12.2-12.2,12.2c-4.5,0-8.6-2.5-10.7-6.4l-1.2,0.6c2.4,4.4,6.9,7.1,11.9,7.1c7.5,0,13.5-6.1,13.5-13.5S35.9,6.8,28.5,6.8"/>
		<path id="Fill-7" class="st1" d="M33.9,27.8c0,0.4-0.3,0.7-0.7,0.7h-9.5c-0.4,0-0.7-0.3-0.7-0.7V21c0-0.4,0.3-0.7,0.7-0.7h9.5
			c0.4,0,0.7,0.3,0.7,0.7V27.8z M29.8,19h-2.7v-2.7c0-0.7,0.6-1.4,1.4-1.4c0.7,0,1.4,0.6,1.4,1.4V19z M28.5,12.2
			c2.2,0,4.1,1.8,4.1,4.1V19h-1.4v-2.7c0-1.5-1.2-2.7-2.7-2.7s-2.7,1.2-2.7,2.7V19h-1.4v-2.7C24.4,14,26.2,12.2,28.5,12.2z
			 M28.5,10.8c-3,0-5.4,2.4-5.4,5.4v2.8c-0.8,0.3-1.4,1-1.4,1.9v6.8c0,1.1,0.9,2,2,2h9.5c1.1,0,2-0.9,2-2V21c0-0.9-0.6-1.6-1.4-1.9
			v-2.8C33.9,13.3,31.4,10.8,28.5,10.8z"/>
		<path id="Fill-8" class="st1" d="M28.5,23.7c-0.4,0-0.7-0.3-0.7-0.7c0-0.4,0.3-0.7,0.7-0.7s0.7,0.3,0.7,0.7
			C29.1,23.4,28.8,23.7,28.5,23.7z M28.5,21c-1.1,0-2,0.9-2,2c0,0.9,0.6,1.6,1.4,1.9v2.8h1.4v-2.8c0.8-0.3,1.4-1,1.4-1.9
			C30.5,21.9,29.6,21,28.5,21z"/>
		<path id="Fill-9" class="st1" d="M4.7,13.5c-0.4,0-0.7-0.3-0.7-0.7c0-0.4,0.3-0.7,0.7-0.7c0.4,0,0.7,0.3,0.7,0.7
			C5.4,13.2,5.1,13.5,4.7,13.5z M4.7,10.8c-1.1,0-2,0.9-2,2s0.9,2,2,2s2-0.9,2-2S5.9,10.8,4.7,10.8z"/>
		<path id="Fill-10" class="st1" d="M4.7,28.5c-0.4,0-0.7-0.3-0.7-0.7c0-0.4,0.3-0.7,0.7-0.7c0.4,0,0.7,0.3,0.7,0.7
			C5.4,28.1,5.1,28.5,4.7,28.5z M4.7,25.7c-1.1,0-2,0.9-2,2c0,1.1,0.9,2,2,2s2-0.9,2-2C6.8,26.7,5.9,25.7,4.7,25.7z"/>
		<polyline id="Fill-11" class="st1" points="18.3,15.6 12.7,15.6 11.3,12.2 8.1,12.2 8.1,13.5 10.4,13.5 11.7,16.9 18.3,16.9 
			18.3,15.6 		"/>
		<polyline id="Fill-12" class="st1" points="12.7,25.1 18.3,25.1 18.3,23.7 11.7,23.7 10.4,27.1 8.1,27.1 8.1,28.5 11.3,28.5 
			12.7,25.1 		"/>
		<polygon id="Fill-13" class="st1" points="9.5,19.6 18.3,19.6 18.3,18.3 9.5,18.3 		"/>
		<polygon id="Fill-14" class="st1" points="6.8,19.6 8.1,19.6 8.1,18.3 6.8,18.3 		"/>
		<polygon id="Fill-15" class="st1" points="10.8,22.4 18.3,22.4 18.3,21 10.8,21 		"/>
		<polygon id="Fill-16" class="st1" points="8.1,22.4 9.5,22.4 9.5,21 8.1,21 		"/>
	</g>
</g>
</svg>
