<?xml version="1.0" encoding="utf-8"?>
<!-- Generator: Adobe Illustrator 21.0.0, SVG Export Plug-In . SVG Version: 6.00 Build 0)  -->
<svg version="1.1" id="Layer_1" xmlns="http://www.w3.org/2000/svg" xmlns:xlink="http://www.w3.org/1999/xlink" x="0px" y="0px"
	 viewBox="0 0 64 69" style="enable-background:new 0 0 64 69;" xml:space="preserve">
<style type="text/css">
	.st0{fill:#023753;}
	.st1{fill:#F48A31;}
</style>
<g id="Page-1">
	<g id="Desktop_1_v3" transform="translate(-692.000000, -1836.000000)">
		<g id="profiy" transform="translate(145.000000, 1415.000000)">
			<g id="block_text" transform="translate(511.000000, 204.000000)">
				<g id="_x33__1_" transform="translate(48.000000, 226.000000)">
					<g id="faq_1_">
						<g id="Group-3_1_">
							<path id="Fill-1_1_" class="st0" d="M3.3,33.6c0.5-2.5,2.5-4.4,5-4.8l3-0.5l2.9,8.7l2.1-1.8l1.6,2.1l-1.1,4H7.1l0.6-5.4
								l-1.4-0.2l-0.6,5.6h-4L3.3,33.6z M20,26.1c1.2,0,2.3-0.2,3.4-0.5v0.9L20,29.9l-3.4-3.4v-0.9C17.7,25.9,18.8,26.1,20,26.1z
								 M8.4,13C8.4,6.6,13.6,1.4,20,1.4S31.6,6.6,31.6,13S26.4,24.7,20,24.7S8.4,19.5,8.4,13z M20,31.8L20,31.8L20,31.8l2.7,2.3
								l-2.1,2.8l1.2,4.3h-3.7l1.2-4.3l-2.1-2.8L20,31.8z M24.3,27.5l3,0.5l-2.2,6.5L21,30.9L24.3,27.5z M19,30.9l-4.1,3.6L12.7,28
								l3-0.5L19,30.9z M36.7,33.6l1.6,7.6h-4l-0.6-5.6l-1.4,0.2l0.6,5.4h-9.7l-1.1-4l1.6-2.1l2.1,1.8l2.9-8.7l3,0.5
								C34.2,29.2,36.2,31.1,36.7,33.6z M38,33.3c-0.6-3.1-3-5.4-6.1-5.9l-7.1-1.2v-1c4.8-2,8.2-6.7,8.2-12.2c0-7.2-5.8-13-13-13
								S7,5.9,7,13c0,5.5,3.4,10.2,8.2,12.1v1l-7.1,1.2C5,27.8,2.6,30.1,2,33.2l-2,9.4h40L38,33.3z"/>
						</g>
						<path id="Fill-4_1_" class="st1" d="M19.7,5.5c1.3,0,2.4,1.1,2.4,2.4v0.4c0,0.6-0.3,1.3-0.7,1.7l-2.1,2.1v3.8h1.4v-3.2
							l1.7-1.7c0.7-0.7,1.1-1.7,1.1-2.7V7.9c0-2.1-1.7-3.8-3.8-3.8s-3.8,1.7-3.8,3.8v0.3h1.4V7.9C17.3,6.6,18.4,5.5,19.7,5.5"/>
						<path id="Fill-5_1_" class="st1" d="M19.3,20c0-0.4,0.3-0.7,0.7-0.7s0.7,0.3,0.7,0.7s-0.3,0.7-0.7,0.7S19.3,20.4,19.3,20z
							 M22.1,20c0-1.1-0.9-2.1-2.1-2.1s-2.1,0.9-2.1,2.1s0.9,2.1,2.1,2.1S22.1,21.1,22.1,20z"/>
					</g>
				</g>
			</g>
		</g>
	</g>
</g>
</svg>
