<?xml version="1.0" encoding="utf-8"?>
<!-- Generator: Adobe Illustrator 21.0.0, SVG Export Plug-In . SVG Version: 6.00 Build 0)  -->
<svg version="1.1" id="Layer_1" xmlns="http://www.w3.org/2000/svg" xmlns:xlink="http://www.w3.org/1999/xlink" x="0px" y="0px"
	 viewBox="0 0 42 43" style="enable-background:new 0 0 42 43;" xml:space="preserve">
<style type="text/css">
	.st0{fill:#023753;}
	.st1{fill:#F48A31;}
</style>
<g id="Page-1">
	<g id="homework">
		<path id="Fill-3" class="st0" d="M37.3,34.4H23v-1.4h12.9V18.2h1.4V34.4z M40.6,37.8c0,0.4-0.3,0.7-0.7,0.7H23v-2.7h0.7v1.4h1.4
			v-1.4h15.6V37.8z M21,41.2c-0.4,0-0.7-0.3-0.7-0.7V30.3c0.2,0,0.4,0,0.7,0s0.5,0,0.7,0v10.2C21.7,40.9,21.4,41.2,21,41.2z M2,38.5
			c-0.4,0-0.7-0.3-0.7-0.7v-2h15.6v1.4h1.4v-1.4H19v2.7H2z M4.7,16.1c0.4,0.2,0.9,0.4,1.4,0.5v16.5H19v1.4H4.7V16.1z M1.4,8.7
			c0-3.7,3-6.8,6.8-6.8s6.8,3,6.8,6.8c0,1.3-0.4,2.6-1.1,3.7l-0.2,0.3l0.8,2.3l-1.6-0.6v-1.7c0-1.8-1-3.4-2.6-4.2
			C11,7.9,11.5,7,11.5,6c0-1.9-1.5-3.4-3.4-3.4S4.7,4.1,4.7,6c0,1,0.5,1.9,1.2,2.6c-1.5,0.8-2.6,2.4-2.6,4.2v0.8
			C2.1,12.3,1.4,10.6,1.4,8.7z M23,12.8v1.4h-7.5l-0.5-1.3c0,0,0-0.1,0.1-0.1H23z M24.4,6h16.3V1.9H24.4V6z M23,30.1
			c2.7-0.9,4.7-3.4,4.7-6.5c0-2.2-1.1-4.2-2.7-5.4h9.5v13.5H23V30.1z M15.6,23.6c0-3,2.4-5.4,5.4-5.4s5.4,2.4,5.4,5.4S24,29,21,29
			S15.6,26.6,15.6,23.6z M7.5,16.8c0.2,0,0.4,0,0.7,0c1.5,0,2.9-0.4,4.2-1.2l4.4,1.6l-0.7-1.8h7v1.7c-0.6-0.2-1.3-0.3-2-0.3
			c-3.7,0-6.8,3-6.8,6.8c0,3,2,5.6,4.7,6.5v1.7H7.5V16.8z M11.5,14.5c-1,0.6-2.2,0.9-3.4,0.9c-1.2,0-2.4-0.3-3.4-0.9v-1.8
			c0-1.9,1.5-3.4,3.4-3.4s3.4,1.5,3.4,3.4V14.5z M6.1,6c0-1.1,0.9-2,2-2s2,0.9,2,2s-0.9,2-2,2S6.1,7.1,6.1,6z M24.4,16.8h16.3V7.3
			H24.4V16.8z M42,18.2V0.6H23v10.8h-7.3c0.3-0.9,0.5-1.8,0.5-2.7c0-4.5-3.6-8.1-8.1-8.1S0,4.2,0,8.7c0,2.7,1.3,5.1,3.4,6.6v19.2H0
			v3.4c0,1.1,0.9,2,2,2H19v0.7c0,1.1,0.9,2,2,2s2-0.9,2-2v-0.7H40c1.1,0,2-0.9,2-2v-3.4h-3.4V18.2H42z"/>
		<path id="Fill-1" class="st0" d="M18.3,23.6c0-1.5,1.2-2.7,2.7-2.7s2.7,1.2,2.7,2.7s-1.2,2.7-2.7,2.7S18.3,25.1,18.3,23.6z
			 M25.1,23.6c0-2.2-1.8-4.1-4.1-4.1s-4.1,1.8-4.1,4.1s1.8,4.1,4.1,4.1S25.1,25.8,25.1,23.6z"/>
		<polygon id="Fill-5" class="st1" points="25.7,4.7 27.1,4.7 27.1,3.3 25.7,3.3 		"/>
		<polygon id="Fill-6" class="st1" points="28.5,4.7 29.9,4.7 29.9,3.3 28.5,3.3 		"/>
		<polygon id="Fill-7" class="st1" points="25.7,9.9 39.2,9.9 39.2,8.5 25.7,8.5 		"/>
		<polygon id="Fill-8" class="st1" points="25.7,12.7 39.2,12.7 39.2,11.3 25.7,11.3 		"/>
		<polygon id="Fill-9" class="st1" points="37.8,15.5 39.2,15.5 39.2,14.1 37.8,14.1 		"/>
		<polygon id="Fill-10" class="st1" points="25.7,15.5 36.4,15.5 36.4,14.1 25.7,14.1 		"/>
	</g>
</g>
</svg>
