<?xml version="1.0" encoding="utf-8"?>
<!-- Generator: Adobe Illustrator 21.0.0, SVG Export Plug-In . SVG Version: 6.00 Build 0)  -->
<svg version="1.1" id="Layer_1" xmlns="http://www.w3.org/2000/svg" xmlns:xlink="http://www.w3.org/1999/xlink" x="0px" y="0px"
	 viewBox="0 0 100 101" style="enable-background:new 0 0 100 101;" xml:space="preserve">
<style type="text/css">
	.st0{fill:#023753;}
	.st1{fill:#F48A31;}
</style>
<g id="Page-1">
	<g id="Desktop_1_v3-popup_THX" transform="translate(-650.000000, -366.000000)">
		<g id="popup_THX" transform="translate(335.000000, 262.000000)">
			<g id="Group-25" transform="translate(315.000000, 104.000000)">
				<path id="Fill-11" class="st0" d="M61.4,6.6c0.2,0.1,0.4,0.1,0.6,0.1c1.1,0,2.1-0.8,2.4-1.9c0.4-1.3-0.5-2.7-1.8-3
					c-1.3-0.4-2.7,0.5-3,1.8C59.2,4.9,60,6.3,61.4,6.6z"/>
				<path id="Fill-13" class="st0" d="M97.2,43.1c-1.4,0.1-2.4,1.4-2.2,2.7c0.1,1.3,1.2,2.3,2.5,2.3c0.1,0,0.2,0,0.2,0
					c1.4-0.1,2.4-1.4,2.2-2.8C99.8,44,98.5,43,97.2,43.1z"/>
				<path id="Fill-2" class="st0" d="M8.7,68.5c-0.5-1.3-2-1.9-3.3-1.3c-1.3,0.5-1.8,2-1.3,3.3C4.5,71.4,5.4,72,6.4,72
					c0.3,0,0.7-0.1,1-0.2C8.6,71.2,9.2,69.7,8.7,68.5z"/>
				<path id="Fill-3" class="st0" d="M5.9,59.7c-0.3-1.4-1.6-2.2-3-1.9c-1.4,0.3-2.2,1.6-1.9,2.9c0.2,1.2,1.3,2,2.4,2
					c0.2,0,0.3,0,0.5-0.1C5.3,62.4,6.2,61.1,5.9,59.7z"/>
				<path id="Fill-4" class="st0" d="M24.9,12.4c0.5,0,0.9-0.1,1.3-0.4c1.2-0.7,1.5-2.3,0.8-3.4c-0.7-1.2-2.3-1.5-3.4-0.8
					c-1.2,0.7-1.5,2.3-0.8,3.4C23.3,12,24.1,12.4,24.9,12.4z"/>
				<path id="Fill-5" class="st0" d="M17.3,18.4c0.6,0,1.2-0.2,1.7-0.7c1-1,1-2.5,0.1-3.5c-1-1-2.5-1-3.5-0.1c-1,1-1,2.5-0.1,3.5
					C16,18.1,16.6,18.4,17.3,18.4z"/>
				<path id="Fill-6" class="st0" d="M2.5,53.1C3.9,53.1,5,52,5,50.6v-0.1C5,49.1,3.9,48,2.5,48C1.1,48,0,49.1,0,50.5v0.1
					C0,52,1.1,53.1,2.5,53.1z"/>
				<path id="Fill-7" class="st0" d="M15.5,83.5c-1,1-0.9,2.6,0.1,3.6c0.5,0.5,1.1,0.7,1.7,0.7c0.7,0,1.3-0.3,1.8-0.8
					c1-1,0.9-2.6-0.1-3.6C18.1,82.5,16.5,82.5,15.5,83.5z"/>
				<path id="Fill-8" class="st0" d="M3,43.3c0.2,0,0.3,0.1,0.5,0.1c1.2,0,2.2-0.8,2.4-2c0.3-1.4-0.6-2.7-2-3c-1.4-0.3-2.7,0.6-3,2
					C0.7,41.7,1.6,43,3,43.3z"/>
				<path id="Fill-9" class="st0" d="M93.1,36.9c0.3,1.1,1.3,1.8,2.4,1.8c0.2,0,0.5,0,0.7-0.1c1.3-0.4,2-1.8,1.6-3.1
					c-0.4-1.3-1.8-2-3.1-1.6C93.4,34.2,92.7,35.6,93.1,36.9z"/>
				<path id="Fill-10" class="st0" d="M52.3,5.2h0.1c1.3,0,2.4-1,2.5-2.4c0.1-1.4-1-2.6-2.4-2.6c-1.4-0.1-2.5,1-2.6,2.4
					C49.9,4,51,5.2,52.3,5.2z"/>
				<path id="Fill-22" class="st0" d="M86.2,21.8c0.6,0,1.2-0.2,1.6-0.6c1-0.9,1.2-2.5,0.3-3.5c-0.9-1-2.5-1.2-3.5-0.3
					c-1,0.9-1.2,2.5-0.3,3.5C84.8,21.5,85.5,21.8,86.2,21.8z"/>
				<path id="Fill-15" class="st0" d="M26.3,89c-1.2-0.7-2.7-0.4-3.4,0.8c-0.7,1.2-0.4,2.7,0.8,3.4c0.4,0.3,0.9,0.4,1.3,0.4
					c0.8,0,1.6-0.4,2.1-1.2C27.8,91.3,27.5,89.7,26.3,89z"/>
				<path id="Fill-16" class="st0" d="M42.8,5.7c0.1,0,0.2,0,0.4,0c1.4-0.2,2.3-1.5,2.1-2.9c-0.2-1.4-1.5-2.3-2.8-2.1
					c-1.4,0.2-2.3,1.5-2.1,2.9C40.6,4.8,41.6,5.7,42.8,5.7z"/>
				<path id="Fill-17" class="st0" d="M5.4,33.9c0.3,0.1,0.6,0.2,1,0.2c1,0,1.9-0.6,2.3-1.5c0.5-1.3,0-2.7-1.3-3.3
					c-1.3-0.5-2.7,0-3.3,1.3C3.5,31.9,4.1,33.4,5.4,33.9z"/>
				<path id="Fill-18" class="st0" d="M9.6,25.3c0.4,0.3,0.9,0.4,1.4,0.4c0.8,0,1.6-0.4,2.1-1.1c0.8-1.1,0.5-2.7-0.6-3.5
					c-1.1-0.8-2.7-0.5-3.5,0.6C8.2,22.9,8.5,24.5,9.6,25.3z"/>
				<path id="Fill-19" class="st0" d="M9.6,75.9c-1.1,0.8-1.4,2.4-0.6,3.5c0.5,0.7,1.3,1.1,2,1.1c0.5,0,1-0.1,1.4-0.5
					c1.1-0.8,1.4-2.4,0.6-3.5C12.3,75.3,10.8,75.1,9.6,75.9z"/>
				<path id="Fill-20" class="st0" d="M91.7,29.8c0.4,0,0.8-0.1,1.2-0.3c1.2-0.7,1.6-2.2,1-3.4c-0.7-1.2-2.2-1.7-3.4-1
					c-1.2,0.7-1.6,2.2-1,3.4C90,29.3,90.8,29.8,91.7,29.8z"/>
				<path id="Fill-21" class="st0" d="M87.9,79.7c-1-0.9-2.6-0.8-3.5,0.3c-0.9,1-0.8,2.6,0.3,3.5c0.5,0.4,1,0.6,1.6,0.6
					c0.7,0,1.4-0.3,1.9-0.9C89,82.2,88.9,80.6,87.9,79.7z"/>
				<path id="Fill-24" class="st0" d="M97.7,52.8c-1.4-0.1-2.6,0.9-2.7,2.3c-0.1,1.4,0.9,2.6,2.2,2.7c0.1,0,0.2,0,0.2,0
					c1.3,0,2.3-1,2.5-2.3C100.1,54.2,99,52.9,97.7,52.8z"/>
				<path id="Fill-26" class="st0" d="M33.5,8.1c0.3,0,0.6,0,0.9-0.2c1.3-0.5,2-1.9,1.5-3.2c-0.5-1.3-1.9-2-3.2-1.5
					c-1.3,0.5-2,1.9-1.5,3.2C31.6,7.5,32.5,8.1,33.5,8.1z"/>
				<path id="Fill-27" class="st0" d="M92.9,71.5c-1.2-0.7-2.7-0.2-3.4,1c-0.7,1.2-0.2,2.7,1,3.4c0.4,0.2,0.8,0.3,1.2,0.3
					c0.9,0,1.7-0.5,2.2-1.3C94.6,73.7,94.1,72.1,92.9,71.5z"/>
				<path id="Fill-28" class="st0" d="M96.2,62.4c-1.3-0.4-2.7,0.3-3.1,1.6c-0.4,1.3,0.3,2.7,1.6,3.1c0.2,0.1,0.5,0.1,0.7,0.1
					c1.1,0,2.1-0.7,2.4-1.8C98.3,64.2,97.6,62.8,96.2,62.4z"/>
				<path id="Fill-29" class="st0" d="M77.7,86.3c-1.1,0.9-1.3,2.4-0.4,3.5c0.5,0.6,1.2,1,2,1c0.5,0,1.1-0.2,1.5-0.5
					c1.1-0.9,1.3-2.4,0.4-3.5C80.4,85.6,78.8,85.5,77.7,86.3z"/>
				<path id="Fill-30" class="st0" d="M52.4,95.8c-1.4,0.1-2.4,1.3-2.4,2.6c0.1,1.3,1.2,2.4,2.5,2.4h0.1c1.4-0.1,2.4-1.3,2.4-2.6
					C55,96.8,53.8,95.7,52.4,95.8z"/>
				<path id="Fill-31" class="st0" d="M43.3,95.3c-1.4-0.2-2.6,0.7-2.8,2.1c-0.2,1.4,0.7,2.7,2.1,2.8c0.1,0,0.2,0,0.4,0
					c1.2,0,2.3-0.9,2.5-2.1C45.6,96.8,44.7,95.5,43.3,95.3z"/>
				<path id="Fill-32" class="st0" d="M34.5,93c-1.3-0.5-2.7,0.2-3.2,1.5c-0.5,1.3,0.2,2.7,1.5,3.2c0.3,0.1,0.6,0.1,0.9,0.1
					c1,0,2-0.6,2.3-1.7C36.4,95,35.8,93.5,34.5,93z"/>
				<path id="Fill-33" class="st0" d="M61.4,94.4c-1.3,0.4-2.1,1.7-1.8,3c0.3,1.1,1.3,1.9,2.4,1.9c0.2,0,0.4,0,0.6-0.1
					c1.3-0.4,2.1-1.7,1.8-3C64.1,94.8,62.8,94,61.4,94.4z"/>
				<path id="Fill-34" class="st0" d="M70,91.2c-1.2,0.6-1.7,2.1-1.1,3.4c0.4,0.9,1.3,1.4,2.2,1.4c0.4,0,0.7-0.1,1.1-0.3
					c1.2-0.6,1.7-2.1,1.1-3.4C72.7,91.1,71.2,90.6,70,91.2z"/>
				<path id="Fill-35" class="st0" d="M69.9,9.8C70.3,10,70.6,10,71,10c0.9,0,1.8-0.5,2.2-1.4c0.6-1.3,0.1-2.7-1.1-3.4
					c-1.2-0.6-2.7-0.1-3.3,1.1C68.2,7.7,68.7,9.2,69.9,9.8z"/>
				<path id="Fill-36" class="st0" d="M77.7,14.6c0.5,0.4,1,0.5,1.5,0.5c0.7,0,1.5-0.3,2-1c0.9-1.1,0.6-2.7-0.4-3.5
					c-1.1-0.9-2.7-0.6-3.5,0.4C76.4,12.2,76.6,13.8,77.7,14.6z"/>
				<path id="Fill-1" class="st1" d="M61.2,39.2l-16.6,17l-5.7-5.9c-1-1-2.5-1-3.5,0c-1,1-1,2.6,0,3.6l7.5,7.7
					c0.5,0.5,1.1,0.7,1.8,0.7c0.7,0,1.3-0.3,1.8-0.7l18.3-18.8c1-1,1-2.6,0-3.6C63.7,38.2,62.1,38.2,61.2,39.2z"/>
			</g>
		</g>
	</g>
</g>
</svg>
