<?xml version="1.0" encoding="utf-8"?>
<!-- Generator: Adobe Illustrator 21.0.0, SVG Export Plug-In . SVG Version: 6.00 Build 0)  -->
<svg version="1.1" id="Layer_1" xmlns="http://www.w3.org/2000/svg" xmlns:xlink="http://www.w3.org/1999/xlink" x="0px" y="0px"
	 viewBox="0 0 68 67" style="enable-background:new 0 0 68 67;" xml:space="preserve">
<style type="text/css">
	.st0{fill:#023753;}
	.st1{fill:#F48A31;}
</style>
<g id="Page-1">
	<g id="Desktop_1_v3" transform="translate(-691.000000, -1656.000000)">
		<g id="profiy" transform="translate(145.000000, 1415.000000)">
			<g id="block_text" transform="translate(511.000000, 204.000000)">
				<g id="_x31__1_" transform="translate(48.000000, 45.000000)">
					<g id="web_1_">
						<g id="Group-3_1_">
							<path id="Fill-1_1_" class="st0" d="M38.6,36.6H3.4c-1.1,0-2-0.9-2-2v-2h39.3v2C40.6,35.7,39.7,36.6,38.6,36.6z M12.9,40.6
								h16.3v-2.7H12.9V40.6z M3.4,8.9h7.5v1.9L21,13.6l10.2-2.9v-4l1.4-0.4v7.3c-0.8,0.3-1.4,1-1.4,1.9v4.7h4.1v-4.7
								c0-0.9-0.6-1.6-1.4-1.9V8.9h4.7c1.1,0,2,0.9,2,2v20.3H1.4V10.9C1.4,9.8,2.3,8.9,3.4,8.9z M21,9.6l8.8-2.4v2.6L21,12.2
								l-8.8-2.5V7.1L21,9.6z M9.5,4.8c0-0.1,0.1-0.2,0.2-0.2L21,1.5l11.4,3.1c0.1,0,0.2,0.1,0.2,0.2S32.5,5,32.4,5L21,8.2L9.6,5
								C9.5,5,9.5,4.9,9.5,4.8z M33.9,15.6V19h-1.4v-3.4c0-0.4,0.3-0.7,0.7-0.7C33.6,15,33.9,15.3,33.9,15.6z M38.6,7.5h-4.7V4.8
								c0-0.7-0.5-1.3-1.1-1.5L21,0.1L9.3,3.3C8.6,3.5,8.1,4.1,8.1,4.8s0.5,1.3,1.1,1.5l1.6,0.4v0.8H3.4C1.5,7.5,0,9,0,10.9v23.7
								C0,36.5,1.5,38,3.4,38h8.1v2.7H8.8V42h24.4v-1.4h-2.7v-2.7h8.1c1.9,0,3.4-1.5,3.4-3.4V10.9C42,9,40.5,7.5,38.6,7.5z"/>
						</g>
						<path id="Fill-4_1_" class="st1" d="M20.2,21l2.2,1.5L20.2,24V21z M18.9,18.4v8.1l6-4.1L18.9,18.4z"/>
						<path id="Fill-5_1_" class="st1" d="M21.2,16.4c3.4,0,6.1,2.8,6.1,6.1c0,3.4-2.8,6.1-6.1,6.1s-6.1-2.8-6.1-6.1
							C15.1,19.1,17.8,16.4,21.2,16.4z M21.2,30c4.1,0,7.5-3.4,7.5-7.5S25.3,15,21.2,15s-7.5,3.4-7.5,7.5S17.1,30,21.2,30z"/>
						<polygon id="Fill-6_1_" class="st1" points="17.1,35.1 25.3,35.1 25.3,33.9 17.1,33.9 						"/>
						<polygon id="Fill-7_1_" class="st1" points="32.6,23.1 33.9,23.1 33.9,21.9 32.6,21.9 						"/>
						<polygon id="Fill-8_1_" class="st1" points="30,23.1 31.3,23.1 31.3,21.9 30,21.9 						"/>
						<polygon id="Fill-9_1_" class="st1" points="10.7,23.1 12,23.1 12,21.9 10.7,21.9 						"/>
						<polygon id="Fill-10_1_" class="st1" points="8.1,23.1 9.4,23.1 9.4,21.9 8.1,21.9 						"/>
						<polygon id="Fill-11_1_" class="st1" points="5.6,23.1 6.9,23.1 6.9,21.9 5.6,21.9 						"/>
						<polygon id="Fill-12_1_" class="st1" points="35.1,23.1 36.4,23.1 36.4,21.9 35.1,21.9 						"/>
					</g>
				</g>
			</g>
		</g>
	</g>
</g>
</svg>
